# xmcd
#
# Track frame offsets: 
#        150
#        12645
#        33900
#        53627
#        67237
#        78085
#        90090
#        106417
#        122875
#        137835
#        153212
#        166592
#        187195
#        202512
#        217000
#        232592
#
# Disc length: 3257 seconds
#
# Revision: 2
# Processed by: cddbd v1.5.2PL0 Copyright (c) Steve Scherf et al.
# Submitted via: ExactAudioCopyFreeDBPlugin 1.0
#
DISCID=c40cb710
DTITLE=Kris Kristofferson - Kristofferson
DYEAR=1970
DGENRE=Country
TTITLE0=Blame It on The Stones
TTITLE1=To Beat the Devil
TTITLE2=Me and Bobby Mcgee
TTITLE3=Best of All Possible Worlds
TTITLE4=Help Me Make It Through the Night
TTITLE5=The Law Is for Protection of the People
TTITLE6=Casey's Last Ride
TTITLE7=Just the Other Side of Nowhere
TTITLE8=Darby's Castle
TTITLE9=For the Good Times
TTITLE10=Duvalier's Dream
TTITLE11=Sunday Mornin' Comin' Down
TTITLE12=The Junkie and the Juicehead, Minus Me
TTITLE13=Shadows of Her Mind
TTITLE14=The Lady's Not for Sale
TTITLE15=Come Sundown
EXTD=
EXTT0=
EXTT1=
EXTT2=
EXTT3=
EXTT4=
EXTT5=
EXTT6=
EXTT7=
EXTT8=
EXTT9=
EXTT10=
EXTT11=
EXTT12=
EXTT13=
EXTT14=
EXTT15=
PLAYORDER=
